<svg data-v-423bf9ae="" xmlns="http://www.w3.org/2000/svg" viewBox="0 0 353.8702426962313 184" class="iconAboveSlogan"><!----><!----><defs data-v-423bf9ae=""><linearGradient data-v-423bf9ae="" gradientTransform="rotate(25)" id="6dec0cb8-6038-4ef1-9386-6ff0bc5f0119" x1="0%" y1="0%" x2="100%" y2="0%"><stop data-v-423bf9ae="" offset="0%" style="stop-color: rgb(156, 107, 9); stop-opacity: 1;"></stop><stop data-v-423bf9ae="" offset="100%" style="stop-color: rgb(255, 219, 147); stop-opacity: 1;"></stop></linearGradient></defs><g data-v-423bf9ae="" id="3b9feee1-0c74-4b10-b8dc-ec81fb79f794" fill="url(#6dec0cb8-6038-4ef1-9386-6ff0bc5f0119)" transform="matrix(4.4742726633647205,0,0,4.4742726633647205,-1.5659995230384993,86.08724922207276)"><path d="M2.00 4.80L2.00 4.80L2.00 4.80Q2.00 4.44 1.93 4.16L1.93 4.16L1.93 4.16Q3.32 3.78 4.45 3.78L4.45 3.78L4.45 3.78Q4.59 3.95 4.59 4.52L4.59 4.52L4.59 4.52Q4.59 5.54 3.96 8.44L3.96 8.44L3.96 8.44Q5.08 7.85 5.94 7.85L5.94 7.85L5.94 7.85Q6.80 7.85 7.26 8.20L7.26 8.20L7.26 8.20Q7.71 8.55 7.71 9.18L7.71 9.18L7.71 9.18Q7.71 10.40 5.91 10.92L5.91 10.92L5.91 10.92Q6.36 12.85 6.78 12.85L6.78 12.85L7.45 12.67L7.76 13.36L7.76 13.36Q7.41 13.64 6.68 13.93L6.68 13.93L6.68 13.93Q5.95 14.22 5.28 14.22L5.28 14.22L5.28 14.22Q4.61 14.22 4.26 13.72L4.26 13.72L4.26 13.72Q3.91 13.22 3.81 12.40L3.81 12.40L3.81 12.40Q3.71 11.59 3.71 10.58L3.71 10.58L3.71 10.58Q4.38 10.42 4.77 10.10L4.77 10.10L4.77 10.10Q5.17 9.79 5.17 9.47L5.17 9.47L5.17 9.47Q5.17 9.16 4.83 9.16L4.83 9.16L4.83 9.16Q4.56 9.16 4.21 9.31L4.21 9.31L4.21 9.31Q3.85 9.46 3.68 9.60L3.68 9.60L3.68 9.60Q2.93 12.80 2.93 13.87L2.93 13.87L2.93 13.87Q1.85 14.11 0.36 14.11L0.36 14.11L0.36 14.11Q0.35 14.00 0.35 13.85L0.35 13.85L0.35 13.85Q0.35 13.12 1.18 9.58L1.18 9.58L1.18 9.58Q2.00 6.05 2.00 4.80ZM11.48 8.80L11.48 8.80L11.48 8.80Q11.48 9.42 11.13 10.72L11.13 10.72L11.13 10.72Q10.78 12.01 10.78 12.40L10.78 12.40L10.78 12.40Q10.78 12.80 10.93 12.80L10.93 12.80L10.93 12.80Q11.09 12.80 11.49 12.66L11.49 12.66L11.62 12.60L11.87 13.30L11.87 13.30Q11.40 13.66 10.69 13.94L10.69 13.94L10.69 13.94Q9.98 14.22 9.41 14.22L9.41 14.22L9.41 14.22Q8.83 14.22 8.51 13.90L8.51 13.90L8.51 13.90Q8.18 13.58 8.18 12.97L8.18 12.97L8.18 12.97Q8.18 12.36 8.52 11.11L8.52 11.11L8.52 11.11Q8.86 9.86 8.86 9.52L8.86 9.52L8.86 9.52Q8.86 9.00 8.50 8.54L8.50 8.54L8.39 8.39L8.43 8.15L8.43 8.15Q9.16 7.92 11.26 7.92L11.26 7.92L11.26 7.92Q11.48 8.18 11.48 8.80ZM10.44 6.83L10.44 6.83L10.44 6.83Q9.80 6.83 9.44 6.50L9.44 6.50L9.44 6.50Q9.09 6.16 9.09 5.64L9.09 5.64L9.09 5.64Q9.09 5.11 9.53 4.75L9.53 4.75L9.53 4.75Q9.97 4.40 10.60 4.40L10.60 4.40L10.60 4.40Q11.23 4.40 11.58 4.69L11.58 4.69L11.58 4.69Q11.93 4.98 11.93 5.52L11.93 5.52L11.93 5.52Q11.93 6.05 11.50 6.44L11.50 6.44L11.50 6.44Q11.07 6.83 10.44 6.83ZM16.11 13.27L16.11 13.27Q15.67 13.66 14.94 13.94L14.94 13.94L14.94 13.94Q14.21 14.22 13.62 14.22L13.62 14.22L13.62 14.22Q13.02 14.22 12.64 13.88L12.64 13.88L12.64 13.88Q12.26 13.54 12.26 12.89L12.26 12.89L12.26 12.89Q12.26 12.25 12.97 9.30L12.97 9.30L12.97 9.30Q13.68 6.36 13.68 4.93L13.68 4.93L13.68 4.93Q13.68 4.62 13.59 4.14L13.59 4.14L13.59 4.14Q14.91 3.78 16.14 3.78L16.14 3.78L16.14 3.78Q16.27 4.00 16.27 4.51L16.27 4.51L16.27 4.51Q16.27 5.46 15.56 8.66L15.56 8.66L15.56 8.66Q14.85 11.86 14.85 12.35L14.85 12.35L14.85 12.35Q14.85 12.84 15.02 12.84L15.02 12.84L15.02 12.84Q15.16 12.84 15.62 12.66L15.62 12.66L15.78 12.59L16.11 13.27ZM19.84 8.80L19.84 8.80L19.84 8.80Q19.84 9.42 19.49 10.72L19.49 10.72L19.49 10.72Q19.14 12.01 19.14 12.40L19.14 12.40L19.14 12.40Q19.14 12.80 19.29 12.80L19.29 12.80L19.29 12.80Q19.45 12.80 19.85 12.66L19.85 12.66L19.98 12.60L20.23 13.30L20.23 13.30Q19.75 13.66 19.05 13.94L19.05 13.94L19.05 13.94Q18.34 14.22 17.77 14.22L17.77 14.22L17.77 14.22Q17.19 14.22 16.86 13.90L16.86 13.90L16.86 13.90Q16.53 13.58 16.53 12.97L16.53 12.97L16.53 12.97Q16.53 12.36 16.88 11.11L16.88 11.11L16.88 11.11Q17.22 9.86 17.22 9.52L17.22 9.52L17.22 9.52Q17.22 9.00 16.86 8.54L16.86 8.54L16.74 8.39L16.79 8.15L16.79 8.15Q17.51 7.92 19.61 7.92L19.61 7.92L19.61 7.92Q19.84 8.18 19.84 8.80ZM18.80 6.83L18.80 6.83L18.80 6.83Q18.16 6.83 17.80 6.50L17.80 6.50L17.80 6.50Q17.44 6.16 17.44 5.64L17.44 5.64L17.44 5.64Q17.44 5.11 17.89 4.75L17.89 4.75L17.89 4.75Q18.33 4.40 18.96 4.40L18.96 4.40L18.96 4.40Q19.59 4.40 19.94 4.69L19.94 4.69L19.94 4.69Q20.29 4.98 20.29 5.52L20.29 5.52L20.29 5.52Q20.29 6.05 19.86 6.44L19.86 6.44L19.86 6.44Q19.43 6.83 18.80 6.83ZM20.24 17.19L20.24 17.19L20.24 17.19Q20.13 17.01 20.13 16.42L20.13 16.42L20.13 16.42Q20.13 15.83 20.67 13.23L20.67 13.23L20.67 13.23Q21.21 10.63 21.21 9.97L21.21 9.97L21.21 9.97Q21.21 9.31 21.08 8.97L21.08 8.97L21.08 8.97Q20.96 8.62 20.83 8.53L20.83 8.53L20.71 8.43L20.73 8.22L20.73 8.22Q21.57 7.95 23.58 7.95L23.58 7.95L23.58 7.95Q23.69 8.16 23.76 8.50L23.76 8.50L23.76 8.50Q24.65 7.85 25.45 7.85L25.45 7.85L25.45 7.85Q26.25 7.85 26.76 8.46L26.76 8.46L26.76 8.46Q27.27 9.07 27.27 10.53L27.27 10.53L27.27 10.53Q27.27 11.98 26.51 13.10L26.51 13.10L26.51 13.10Q25.75 14.22 24.28 14.22L24.28 14.22L24.28 14.22Q23.63 14.22 23.02 13.97L23.02 13.97L23.02 13.97Q22.69 15.55 22.69 16.76L22.69 16.76L22.69 16.76Q21.69 17.12 20.24 17.19ZM23.63 13.05L23.63 13.05L23.63 13.05Q24.01 13.05 24.28 12.49L24.28 12.49L24.28 12.49Q24.75 11.51 24.75 10.11L24.75 10.11L24.75 10.11Q24.75 9.28 24.35 9.28L24.35 9.28L24.35 9.28Q24.14 9.28 23.79 9.44L23.79 9.44L23.79 9.44Q23.70 10.61 23.23 12.98L23.23 12.98L23.23 12.98Q23.46 13.05 23.63 13.05ZM27.93 12.92L27.93 12.92Q27.93 12.33 28.30 10.99L28.30 10.99L28.30 10.99Q28.67 9.65 28.67 9.34L28.67 9.34L28.67 9.34Q28.67 9.03 28.17 8.44L28.17 8.44L28.20 8.23L28.20 8.23Q29.47 7.95 31.18 7.95L31.18 7.95L31.18 7.95Q31.29 8.19 31.29 8.71L31.29 8.71L31.29 8.71Q31.29 9.23 30.91 10.67L30.91 10.67L30.91 10.67Q30.52 12.11 30.52 12.38L30.52 12.38L30.52 12.38Q30.52 12.74 30.87 12.74L30.87 12.74L30.87 12.74Q31.11 12.74 31.47 12.56L31.47 12.56L31.47 12.56Q31.51 12.33 31.72 11.38L31.72 11.38L31.72 11.38Q32.21 9.27 32.21 8.22L32.21 8.22L32.21 8.22Q32.86 7.94 34.41 7.94L34.41 7.94L34.79 7.94L34.79 7.94Q34.79 8.57 34.42 10.40L34.42 10.40L34.42 10.40Q34.05 12.24 34.04 12.52L34.04 12.52L34.04 12.52Q34.03 12.80 34.16 12.80L34.16 12.80L34.85 12.61L35.10 13.31L35.10 13.31Q34.69 13.64 33.92 13.93L33.92 13.93L33.92 13.93Q33.15 14.22 32.56 14.22L32.56 14.22L32.56 14.22Q31.70 14.22 31.49 13.52L31.49 13.52L31.49 13.52Q30.32 14.22 29.26 14.22L29.26 14.22L29.26 14.22Q27.93 14.22 27.93 12.92L27.93 12.92ZM35.31 11.52L35.31 11.52L35.31 11.52Q35.31 9.79 36.37 8.82L36.37 8.82L36.37 8.82Q37.42 7.85 38.98 7.85L38.98 7.85L38.98 7.85Q40.05 7.85 40.70 8.32L40.70 8.32L40.70 8.32Q41.36 8.79 41.36 9.58L41.36 9.58L41.36 9.58Q41.36 10.15 41.01 10.60L41.01 10.60L41.01 10.60Q40.66 11.05 40.15 11.28L40.15 11.28L40.15 11.28Q39.09 11.76 38.30 11.86L38.30 11.86L37.95 11.90L37.95 11.90Q38.11 12.82 38.88 12.82L38.88 12.82L38.88 12.82Q39.21 12.82 39.62 12.68L39.62 12.68L39.62 12.68Q40.03 12.53 40.26 12.38L40.26 12.38L40.50 12.24L40.95 12.84L40.95 12.84Q40.95 12.84 40.80 12.99L40.80 12.99L40.80 12.99Q40.71 13.08 40.40 13.32L40.40 13.32L40.40 13.32Q40.08 13.57 39.74 13.75L39.74 13.75L39.74 13.75Q39.40 13.93 38.86 14.08L38.86 14.08L38.86 14.08Q38.33 14.22 37.80 14.22L37.80 14.22L37.80 14.22Q36.61 14.22 35.96 13.53L35.96 13.53L35.96 13.53Q35.31 12.84 35.31 11.52ZM37.90 10.98L37.90 10.98Q38.30 10.92 38.71 10.31L38.71 10.31L38.71 10.31Q39.12 9.70 39.12 9.29L39.12 9.29L39.12 9.29Q39.12 8.88 38.88 8.88L38.88 8.88L38.88 8.88Q38.53 8.88 38.23 9.42L38.23 9.42L38.23 9.42Q37.94 9.97 37.90 10.98L37.90 10.98ZM46.41 14.22L46.41 14.22L46.41 14.22Q45.54 14.22 45.29 13.55L45.29 13.55L45.29 13.55Q44.23 14.22 43.39 14.22L43.39 14.22L43.39 14.22Q42.56 14.22 42.05 13.66L42.05 13.66L42.05 13.66Q41.54 13.09 41.54 11.82L41.54 11.82L41.54 11.82Q41.54 10.15 42.38 9.00L42.38 9.00L42.38 9.00Q43.23 7.85 44.58 7.85L44.58 7.85L44.58 7.85Q45.23 7.85 45.89 8.16L45.89 8.16L45.89 8.16Q46.41 5.80 46.41 4.76L46.41 4.76L46.41 4.76Q46.41 4.45 46.37 4.14L46.37 4.14L46.37 4.14Q47.67 3.78 48.87 3.78L48.87 3.78L48.87 3.78Q48.99 3.96 48.99 4.64L48.99 4.64L48.99 4.64Q48.99 5.32 48.35 8.29L48.35 8.29L48.35 8.29Q47.71 11.26 47.71 12.26L47.71 12.26L47.71 12.26Q47.71 12.80 47.89 12.80L47.89 12.80L48.50 12.60L48.75 13.31L48.75 13.31Q47.52 14.22 46.41 14.22ZM44.58 12.81L44.58 12.81L44.58 12.81Q44.83 12.81 45.14 12.64L45.14 12.64L45.14 12.63L45.14 12.63Q45.19 11.49 45.68 9.06L45.68 9.06L45.68 9.06Q45.40 8.97 45.28 8.97L45.28 8.97L45.28 8.97Q44.98 8.97 44.76 9.27L44.76 9.27L44.76 9.27Q44.53 9.56 44.41 10.02L44.41 10.02L44.41 10.02Q44.17 10.98 44.17 11.89L44.17 11.89L44.17 11.89Q44.17 12.81 44.58 12.81ZM49 11.52L49 11.52L49 11.52Q49 9.79 50.06 8.82L50.06 8.82L50.06 8.82Q51.11 7.85 52.67 7.85L52.67 7.85L52.67 7.85Q53.75 7.85 54.40 8.32L54.40 8.32L54.40 8.32Q55.05 8.79 55.05 9.58L55.05 9.58L55.05 9.58Q55.05 10.15 54.70 10.60L54.70 10.60L54.70 10.60Q54.35 11.05 53.84 11.28L53.84 11.28L53.84 11.28Q52.78 11.76 52.00 11.86L52.00 11.86L51.65 11.90L51.65 11.90Q51.80 12.82 52.57 12.82L52.57 12.82L52.57 12.82Q52.91 12.82 53.31 12.68L53.31 12.68L53.31 12.68Q53.72 12.53 53.96 12.38L53.96 12.38L54.19 12.24L54.64 12.84L54.64 12.84Q54.64 12.84 54.49 12.99L54.49 12.99L54.49 12.99Q54.40 13.08 54.09 13.32L54.09 13.32L54.09 13.32Q53.77 13.57 53.43 13.75L53.43 13.75L53.43 13.75Q53.09 13.93 52.56 14.08L52.56 14.08L52.56 14.08Q52.02 14.22 51.49 14.22L51.49 14.22L51.49 14.22Q50.30 14.22 49.65 13.53L49.65 13.53L49.65 13.53Q49 12.84 49 11.52ZM51.59 10.98L51.59 10.98Q52.00 10.92 52.40 10.31L52.40 10.31L52.40 10.31Q52.81 9.70 52.81 9.29L52.81 9.29L52.81 9.29Q52.81 8.88 52.57 8.88L52.57 8.88L52.57 8.88Q52.22 8.88 51.93 9.42L51.93 9.42L51.93 9.42Q51.63 9.97 51.59 10.98L51.59 10.98ZM60.12 12.17L60.12 12.17L60.12 12.17Q60.12 13.03 59.31 13.63L59.31 13.63L59.31 13.63Q58.51 14.22 57.43 14.22L57.43 14.22L57.43 14.22Q56.35 14.22 55.66 13.86L55.66 13.86L55.66 13.86Q54.96 13.50 54.96 13.17L54.96 13.17L54.96 13.17Q54.96 12.84 55.39 12.33L55.39 12.33L55.39 12.33Q55.82 11.82 56.27 11.73L56.27 11.73L56.27 11.73Q56.91 12.08 57.43 13.29L57.43 13.29L57.43 13.29Q57.83 13.29 57.83 13.02L57.83 13.02L57.83 13.02Q57.83 12.82 57.72 12.66L57.72 12.66L57.72 12.66Q57.61 12.49 57.55 12.39L57.55 12.39L57.55 12.39Q57.50 12.29 57.36 12.12L57.36 12.12L57.36 12.12Q57.22 11.94 57.15 11.86L57.15 11.86L57.15 11.86Q56.80 11.44 56.52 11.09L56.52 11.09L56.52 11.09Q55.85 10.25 55.85 9.61L55.85 9.61L55.85 9.61Q55.85 8.97 56.25 8.57L56.25 8.57L56.25 8.57Q56.95 7.85 58.31 7.85L58.31 7.85L58.31 7.85Q59.16 7.85 59.67 8.18L59.67 8.18L59.67 8.18Q60.17 8.51 60.17 9.16L60.17 9.16L60.17 9.16Q60.17 9.81 59.40 10.65L59.40 10.65L59.40 10.65Q60.12 11.48 60.12 12.17ZM59.18 9.60L59.18 9.60L59.18 9.60Q59.35 9.34 59.35 9.13L59.35 9.13L59.35 9.13Q59.35 8.92 59.16 8.81L59.16 8.81L59.16 8.81Q58.98 8.69 58.73 8.69L58.73 8.69L58.73 8.69Q58.48 8.69 58.34 8.81L58.34 8.81L58.34 8.81Q58.21 8.93 58.21 9.13L58.21 9.13L58.21 9.13Q58.21 9.32 58.81 10.00L58.81 10.00L58.81 10.00Q59.01 9.86 59.18 9.60ZM64.12 8.80L64.12 8.80L64.12 8.80Q64.12 9.42 63.77 10.72L63.77 10.72L63.77 10.72Q63.42 12.01 63.42 12.40L63.42 12.40L63.42 12.40Q63.42 12.80 63.57 12.80L63.57 12.80L63.57 12.80Q63.73 12.80 64.13 12.66L64.13 12.66L64.26 12.60L64.51 13.30L64.51 13.30Q64.04 13.66 63.33 13.94L63.33 13.94L63.33 13.94Q62.62 14.22 62.05 14.22L62.05 14.22L62.05 14.22Q61.47 14.22 61.14 13.90L61.14 13.90L61.14 13.90Q60.82 13.58 60.82 12.97L60.82 12.97L60.82 12.97Q60.82 12.36 61.16 11.11L61.16 11.11L61.16 11.11Q61.50 9.86 61.50 9.52L61.50 9.52L61.50 9.52Q61.50 9.00 61.14 8.54L61.14 8.54L61.03 8.39L61.07 8.15L61.07 8.15Q61.80 7.92 63.90 7.92L63.90 7.92L63.90 7.92Q64.12 8.18 64.12 8.80ZM63.08 6.83L63.08 6.83L63.08 6.83Q62.44 6.83 62.08 6.50L62.08 6.50L62.08 6.50Q61.73 6.16 61.73 5.64L61.73 5.64L61.73 5.64Q61.73 5.11 62.17 4.75L62.17 4.75L62.17 4.75Q62.61 4.40 63.24 4.40L63.24 4.40L63.24 4.40Q63.87 4.40 64.22 4.69L64.22 4.69L64.22 4.69Q64.57 4.98 64.57 5.52L64.57 5.52L64.57 5.52Q64.57 6.05 64.14 6.44L64.14 6.44L64.14 6.44Q63.71 6.83 63.08 6.83ZM68.35 14.18L68.49 13.45L68.49 13.45Q67.51 13.99 66.75 13.99L66.75 13.99L66.75 13.99Q65.98 13.99 65.47 13.38L65.47 13.38L65.47 13.38Q64.96 12.77 64.96 11.56L64.96 11.56L64.96 11.56Q64.96 9.95 65.84 8.90L65.84 8.90L65.84 8.90Q66.71 7.85 67.93 7.85L67.93 7.85L67.93 7.85Q68.52 7.85 69.26 8.18L69.26 8.18L69.26 8.18Q70.13 7.91 71.23 7.91L71.23 7.91L71.47 7.91L71.47 7.91Q71.54 8.05 71.54 8.53L71.54 8.53L71.54 8.53Q71.54 9.02 71.37 10.43L71.37 10.43L71.37 10.43Q71.19 11.84 70.98 12.80L70.98 12.80L70.98 12.80Q70.53 14.83 69.59 16.01L69.59 16.01L69.59 16.01Q68.64 17.19 67.21 17.19L67.21 17.19L67.21 17.19Q66.51 17.19 66.07 16.88L66.07 16.88L66.07 16.88Q65.63 16.58 65.63 16.10L65.63 16.10L65.63 16.10Q65.63 15.62 65.86 15.31L65.86 15.31L65.86 15.31Q66.09 14.99 66.53 14.78L66.53 14.78L66.53 14.78Q67.27 14.42 68.35 14.18L68.35 14.18ZM68.57 8.99L68.57 8.99L68.57 8.99Q68.08 8.99 67.82 9.83L67.82 9.83L67.82 9.83Q67.56 10.67 67.56 11.65L67.56 11.65L67.56 11.65Q67.56 12.63 68.03 12.63L68.03 12.63L68.03 12.63Q68.22 12.63 68.60 12.43L68.60 12.43L68.60 12.43Q68.71 11.30 68.96 9.07L68.96 9.07L68.96 9.07Q68.75 8.99 68.57 8.99ZM66.98 16.16L66.98 16.16L66.98 16.16Q67.24 16.16 67.59 15.89L67.59 15.89L67.59 15.89Q67.93 15.62 68.15 15.02L68.15 15.02L68.15 15.02Q66.63 15.29 66.63 15.83L66.63 15.83L66.63 15.83Q66.65 16.16 66.98 16.16ZM72.39 14.14L72.39 14.14L72.16 14.14L72.16 14.14Q72.16 13.27 72.55 11.51L72.55 11.51L72.55 11.51Q72.95 9.74 72.95 9.48L72.95 9.48L72.95 9.48Q72.95 9.21 72.83 8.96L72.83 8.96L72.83 8.96Q72.70 8.71 72.58 8.58L72.58 8.58L72.45 8.46L72.48 8.25L72.48 8.25Q73.30 7.98 75.36 7.98L75.36 7.98L75.36 7.98Q75.50 8.30 75.56 8.65L75.56 8.65L75.56 8.65Q76.83 7.87 77.70 7.87L77.70 7.87L77.70 7.87Q78.29 7.87 78.62 8.25L78.62 8.25L78.62 8.25Q78.96 8.64 78.96 9.18L78.96 9.18L78.96 9.18Q78.96 9.72 78.65 10.91L78.65 10.91L78.65 10.91Q78.34 12.10 78.34 12.45L78.34 12.45L78.34 12.45Q78.34 12.81 78.44 12.81L78.44 12.81L79.18 12.61L79.44 13.31L79.44 13.31Q78.99 13.65 78.27 13.94L78.27 13.94L78.27 13.94Q77.55 14.22 76.94 14.22L76.94 14.22L76.94 14.22Q75.75 14.22 75.75 12.99L75.75 12.99L75.75 12.99Q75.75 12.46 76.05 11.26L76.05 11.26L76.05 11.26Q76.34 10.05 76.34 9.75L76.34 9.75L76.34 9.75Q76.34 9.45 76.15 9.45L76.15 9.45L76.15 9.45Q75.89 9.45 75.47 9.73L75.47 9.73L75.47 9.73Q75.42 9.98 75.19 10.95L75.19 10.95L75.19 10.95Q74.75 12.98 74.75 13.87L74.75 13.87L74.75 13.87Q74.06 14.14 72.39 14.14Z"></path></g><!----><g data-v-423bf9ae="" id="a7aa3755-bf29-4aa9-ac37-9098d49372db" transform="matrix(2.3622050555258802,0,0,2.3622050555258802,58.889747223705996,-72.09214349070956)" stroke="none" fill="#935E24"><path d="M22.4 69H2c16.7-9.8 23.6-33 34.9-33 5 0 8.7 3.1 9.4 6.7-6-3-11.5 2.3-11.5 9 0 2.3.5 4.5 1.5 6.5-3.3 3.5-6.9 6.6-11 9L22.4 69zM98 69c-7.3-2.9-12.3-7.9-12.3-14.6 0-5.7 4.6-10.2 9.7-7.7-.6-3.1-3.8-5.7-7.9-5.7-9.7 0-15.4 19.7-29.5 28h40zm-41-1.7c3.9-2.3 7.2-5.6 10.1-9.1-1.7-2.7-2.6-5.7-2.6-9.1 0-7.8 6.4-13.8 13.3-10.4-.8-4.2-5.2-7.8-10.9-7.8-13.2 0-21.1 26.8-40.4 38h27.7l2.8-1.6z"></path></g><!----><g data-v-423bf9ae="" id="6e1bb471-0b57-4079-acf2-fdc336c5548b" fill="#FFAD2F" transform="matrix(0.9030373852802867,0,0,0.9030373852802867,44.44022441010287,201.50599901129843)"><path d="M2.16 12.38L7.99 12.38L7.99 13.02L1.46 13.02L1.46 3.78L7.77 3.78L7.77 4.42L2.16 4.42L2.16 7.99L6.59 7.99L6.59 8.65L2.16 8.65L2.16 12.38ZM25.62 3.78L25.62 13.02L24.95 13.02L24.95 6.13L25.03 4.45L25.02 4.45L21.64 13.02L21 13.02L17.63 4.45L17.61 4.45L17.70 6.13L17.70 13.02L17.02 13.02L17.02 3.78L18.07 3.78L20.86 10.78L21.32 12.19L21.34 12.19L21.78 10.79L24.57 3.78L25.62 3.78ZM35.53 13.02L35.53 3.78L38.79 3.78L38.79 3.78Q40.31 3.78 41.05 4.41L41.05 4.41L41.05 4.41Q41.80 5.04 41.80 6.23L41.80 6.23L41.80 6.23Q41.80 7.04 41.36 7.60L41.36 7.60L41.36 7.60Q40.92 8.16 40.11 8.33L40.11 8.33L40.11 8.34L40.11 8.34Q41.01 8.48 41.53 9.07L41.53 9.07L41.53 9.07Q42.06 9.66 42.06 10.53L42.06 10.53L42.06 10.53Q42.06 11.72 41.21 12.37L41.21 12.37L41.21 12.37Q40.36 13.02 38.79 13.02L38.79 13.02L35.53 13.02ZM36.23 8.04L38.81 8.04L38.81 8.04Q41.06 8.04 41.06 6.23L41.06 6.23L41.06 6.23Q41.06 4.42 38.81 4.42L38.81 4.42L36.23 4.42L36.23 8.04ZM36.23 12.38L38.93 12.38L38.93 12.38Q40.11 12.38 40.71 11.90L40.71 11.90L40.71 11.90Q41.31 11.42 41.31 10.53L41.31 10.53L41.31 10.53Q41.31 9.62 40.71 9.15L40.71 9.15L40.71 9.15Q40.11 8.68 38.93 8.68L38.93 8.68L36.23 8.68L36.23 12.38ZM58.32 13.02L57.50 13.02L54.85 9.02L54.81 9.02L52.08 9.02L52.08 13.02L51.38 13.02L51.38 3.78L54.81 3.78L54.81 3.78Q56.20 3.78 57.02 4.48L57.02 4.48L57.02 4.48Q57.83 5.18 57.83 6.40L57.83 6.40L57.83 6.40Q57.83 7.41 57.25 8.07L57.25 8.07L57.25 8.07Q56.66 8.74 55.64 8.93L55.64 8.93L58.32 13.02ZM52.08 4.42L52.08 8.36L54.80 8.36L54.80 8.36Q55.92 8.36 56.51 7.85L56.51 7.85L56.51 7.85Q57.11 7.35 57.11 6.40L57.11 6.40L57.11 6.40Q57.11 5.45 56.51 4.93L56.51 4.93L56.51 4.93Q55.92 4.42 54.80 4.42L54.80 4.42L52.08 4.42ZM73.63 13.02L72.46 10.12L68.04 10.12L66.89 13.02L66.15 13.02L69.85 3.78L70.67 3.78L74.37 13.02L73.63 13.02ZM68.31 9.48L72.21 9.48L70.60 5.45L70.27 4.47L70.25 4.47L69.92 5.42L68.31 9.48ZM90.16 10.68L90.16 10.68Q89.77 11.86 88.80 12.51L88.80 12.51L88.80 12.51Q87.82 13.16 86.46 13.16L86.46 13.16L86.46 13.16Q85.20 13.16 84.25 12.58L84.25 12.58L84.25 12.58Q83.30 12.00 82.78 10.92L82.78 10.92L82.78 10.92Q82.26 9.84 82.26 8.40L82.26 8.40L82.26 8.40Q82.26 6.96 82.78 5.88L82.78 5.88L82.78 5.88Q83.30 4.80 84.25 4.22L84.25 4.22L84.25 4.22Q85.20 3.64 86.45 3.64L86.45 3.64L86.45 3.64Q89.22 3.64 90.03 5.92L90.03 5.92L89.35 6.24L89.35 6.24Q89.03 5.26 88.32 4.77L88.32 4.77L88.32 4.77Q87.61 4.28 86.49 4.28L86.49 4.28L86.49 4.28Q85.46 4.28 84.67 4.78L84.67 4.78L84.67 4.78Q83.87 5.28 83.44 6.21L83.44 6.21L83.44 6.21Q83.01 7.14 83.01 8.40L83.01 8.40L83.01 8.40Q83.01 9.66 83.43 10.59L83.43 10.59L83.43 10.59Q83.86 11.52 84.64 12.02L84.64 12.02L84.64 12.02Q85.41 12.52 86.46 12.52L86.46 12.52L86.46 12.52Q87.58 12.52 88.37 11.97L88.37 11.97L88.37 11.97Q89.15 11.42 89.46 10.42L89.46 10.42L90.16 10.68ZM99.92 3.78L99.92 13.02L99.22 13.02L99.22 3.78L99.92 3.78ZM116.93 3.78L116.93 13.02L116.06 13.02L111.16 5.77L110.47 4.54L110.46 4.54L110.50 5.70L110.50 13.02L109.83 13.02L109.83 3.78L110.71 3.78L115.60 11.02L116.30 12.26L116.27 11.10L116.27 3.78L116.93 3.78ZM130.40 8.50L134.19 8.50L134.19 13.02L133.63 13.02L133.60 11.41L133.60 11.41Q133.22 12.25 132.42 12.71L132.42 12.71L132.42 12.71Q131.61 13.16 130.42 13.16L130.42 13.16L130.42 13.16Q129.16 13.16 128.22 12.58L128.22 12.58L128.22 12.58Q127.27 12.00 126.76 10.92L126.76 10.92L126.76 10.92Q126.25 9.84 126.25 8.40L126.25 8.40L126.25 8.40Q126.25 6.96 126.78 5.88L126.78 5.88L126.78 5.88Q127.30 4.80 128.25 4.22L128.25 4.22L128.25 4.22Q129.21 3.64 130.47 3.64L130.47 3.64L130.47 3.64Q131.88 3.64 132.78 4.20L132.78 4.20L132.78 4.20Q133.67 4.76 134.12 5.91L134.12 5.91L133.48 6.24L133.48 6.24Q133.15 5.28 132.39 4.78L132.39 4.78L132.39 4.78Q131.63 4.28 130.47 4.28L130.47 4.28L130.47 4.28Q129.43 4.28 128.65 4.78L128.65 4.78L128.65 4.78Q127.86 5.28 127.43 6.21L127.43 6.21L127.43 6.21Q126.99 7.14 126.99 8.40L126.99 8.40L126.99 8.40Q126.99 10.32 127.91 11.42L127.91 11.42L127.91 11.42Q128.83 12.52 130.45 12.52L130.45 12.52L130.45 12.52Q131.46 12.52 132.16 12.12L132.16 12.12L132.16 12.12Q132.86 11.72 133.20 11.07L133.20 11.07L133.20 11.07Q133.53 10.42 133.53 9.67L133.53 9.67L133.53 9.16L130.40 9.16L130.40 8.50ZM160.51 3.78L157.23 9.42L157.23 13.02L156.53 13.02L156.53 9.42L153.26 3.78L154.08 3.78L156.88 8.69L159.68 3.78L160.51 3.78ZM172.48 3.64L172.48 3.64Q173.78 3.64 174.74 4.22L174.74 4.22L174.74 4.22Q175.70 4.80 176.22 5.87L176.22 5.87L176.22 5.87Q176.74 6.94 176.74 8.40L176.74 8.40L176.74 8.40Q176.74 9.86 176.22 10.93L176.22 10.93L176.22 10.93Q175.70 12.00 174.74 12.58L174.74 12.58L174.74 12.58Q173.78 13.16 172.48 13.16L172.48 13.16L172.48 13.16Q171.18 13.16 170.22 12.58L170.22 12.58L170.22 12.58Q169.26 12.00 168.74 10.93L168.74 10.93L168.74 10.93Q168.22 9.86 168.22 8.40L168.22 8.40L168.22 8.40Q168.22 6.94 168.74 5.87L168.74 5.87L168.74 5.87Q169.26 4.80 170.22 4.22L170.22 4.22L170.22 4.22Q171.18 3.64 172.48 3.64L172.48 3.64ZM172.48 4.28L172.48 4.28Q171.40 4.28 170.61 4.78L170.61 4.78L170.61 4.78Q169.82 5.28 169.39 6.21L169.39 6.21L169.39 6.21Q168.97 7.14 168.97 8.40L168.97 8.40L168.97 8.40Q168.97 9.66 169.39 10.59L169.39 10.59L169.39 10.59Q169.82 11.52 170.61 12.02L170.61 12.02L170.61 12.02Q171.40 12.52 172.48 12.52L172.48 12.52L172.48 12.52Q173.56 12.52 174.36 12.02L174.36 12.02L174.36 12.02Q175.15 11.52 175.58 10.59L175.58 10.59L175.58 10.59Q176.01 9.66 176.01 8.40L176.01 8.40L176.01 8.40Q176.01 7.14 175.58 6.21L175.58 6.21L175.58 6.21Q175.15 5.28 174.36 4.78L174.36 4.78L174.36 4.78Q173.56 4.28 172.48 4.28L172.48 4.28ZM193.07 3.78L193.07 9.65L193.07 9.65Q193.07 11.35 192.15 12.26L192.15 12.26L192.15 12.26Q191.23 13.16 189.52 13.16L189.52 13.16L189.52 13.16Q187.81 13.16 186.88 12.26L186.88 12.26L186.88 12.26Q185.95 11.35 185.95 9.65L185.95 9.65L185.95 3.78L186.65 3.78L186.65 9.51L186.65 9.51Q186.65 10.99 187.38 11.75L187.38 11.75L187.38 11.75Q188.10 12.52 189.52 12.52L189.52 12.52L189.52 12.52Q190.92 12.52 191.65 11.75L191.65 11.75L191.65 11.75Q192.37 10.99 192.37 9.51L192.37 9.51L192.37 3.78L193.07 3.78ZM209.82 13.02L208.99 13.02L206.35 9.02L206.30 9.02L203.57 9.02L203.57 13.02L202.87 13.02L202.87 3.78L206.30 3.78L206.30 3.78Q207.69 3.78 208.51 4.48L208.51 4.48L208.51 4.48Q209.33 5.18 209.33 6.40L209.33 6.40L209.33 6.40Q209.33 7.41 208.74 8.07L208.74 8.07L208.74 8.07Q208.15 8.74 207.13 8.93L207.13 8.93L209.82 13.02ZM203.57 4.42L203.57 8.36L206.29 8.36L206.29 8.36Q207.41 8.36 208.00 7.85L208.00 7.85L208.00 7.85Q208.60 7.35 208.60 6.40L208.60 6.40L208.60 6.40Q208.60 5.45 208.00 4.93L208.00 4.93L208.00 4.93Q207.41 4.42 206.29 4.42L206.29 4.42L203.57 4.42ZM230.92 3.78L230.92 13.02L230.22 13.02L230.22 3.78L230.92 3.78ZM243.74 3.78L243.74 3.78Q245.95 3.78 247.15 4.95L247.15 4.95L247.15 4.95Q248.35 6.12 248.35 8.33L248.35 8.33L248.35 8.33Q248.35 10.60 247.15 11.81L247.15 11.81L247.15 11.81Q245.95 13.02 243.74 13.02L243.74 13.02L240.83 13.02L240.83 3.78L243.74 3.78ZM243.80 12.38L243.80 12.38Q245.64 12.38 246.63 11.33L246.63 11.33L246.63 11.33Q247.62 10.29 247.62 8.33L247.62 8.33L247.62 8.33Q247.62 6.45 246.63 5.44L246.63 5.44L246.63 5.44Q245.64 4.42 243.80 4.42L243.80 4.42L241.53 4.42L241.53 12.38L243.80 12.38ZM258.38 12.38L264.22 12.38L264.22 13.02L257.68 13.02L257.68 3.78L264.00 3.78L264.00 4.42L258.38 4.42L258.38 7.99L262.82 7.99L262.82 8.65L258.38 8.65L258.38 12.38ZM279.54 13.02L278.38 10.12L273.95 10.12L272.80 13.02L272.06 13.02L275.76 3.78L276.58 3.78L280.28 13.02L279.54 13.02ZM274.22 9.48L278.12 9.48L276.51 5.45L276.18 4.47L276.16 4.47L275.83 5.42L274.22 9.48ZM291.75 3.64L291.75 3.64Q294.35 3.64 295.23 5.68L295.23 5.68L294.63 6.17L294.63 6.17Q294.28 5.18 293.59 4.73L293.59 4.73L293.59 4.73Q292.89 4.28 291.76 4.28L291.76 4.28L291.76 4.28Q290.95 4.28 290.35 4.54L290.35 4.54L290.35 4.54Q289.74 4.79 289.43 5.22L289.43 5.22L289.43 5.22Q289.11 5.66 289.11 6.20L289.11 6.20L289.11 6.20Q289.11 6.73 289.38 7.08L289.38 7.08L289.38 7.08Q289.65 7.43 290.28 7.68L290.28 7.68L290.28 7.68Q290.92 7.92 292.04 8.12L292.04 8.12L292.04 8.12Q293.85 8.43 294.60 9.02L294.60 9.02L294.60 9.02Q295.36 9.60 295.36 10.64L295.36 10.64L295.36 10.64Q295.36 11.38 294.92 11.96L294.92 11.96L294.92 11.96Q294.49 12.53 293.70 12.84L293.70 12.84L293.70 12.84Q292.91 13.16 291.89 13.16L291.89 13.16L291.89 13.16Q290.43 13.16 289.43 12.58L289.43 12.58L289.43 12.58Q288.43 12.00 288.06 10.95L288.06 10.95L288.68 10.47L288.68 10.47Q288.96 11.47 289.81 11.99L289.81 11.99L289.81 11.99Q290.65 12.52 291.90 12.52L291.90 12.52L291.90 12.52Q293.10 12.52 293.87 12.03L293.87 12.03L293.87 12.03Q294.63 11.54 294.63 10.68L294.63 10.68L294.63 10.68Q294.63 9.94 294.01 9.51L294.01 9.51L294.01 9.51Q293.38 9.07 291.84 8.81L291.84 8.81L291.84 8.81Q290.54 8.58 289.79 8.26L289.79 8.26L289.79 8.26Q289.03 7.94 288.70 7.46L288.70 7.46L288.70 7.46Q288.37 6.99 288.37 6.27L288.37 6.27L288.37 6.27Q288.37 5.56 288.78 4.96L288.78 4.96L288.78 4.96Q289.20 4.35 289.96 4.00L289.96 4.00L289.96 4.00Q290.72 3.64 291.75 3.64L291.75 3.64Z"></path></g></svg>